<?xml version="1.0" encoding="UTF-8"?>
<svg id="Layer_1" data-name="Layer 1" xmlns="http://www.w3.org/2000/svg" viewBox="0 0 1490.76 490.16">
  <g>
    <path d="M345.26,215.05v114h-39v-71.47c2.58-3.65,4-8.48,4-13.53,0-10.45-6.03-20-16-20s-16,9.55-16,20c0,5.05,1.42,9.88,4,13.53v71.47h-42v-71.47c2.58-3.65,4-8.48,4-13.53,0-10.45-6.03-20-16-20s-16,9.55-16,20c0,5.05,1.42,9.88,4,13.53v71.47h-39v-114h-24v138h216v-138h-24Z" style="fill: #e4a242;"/>
    <path d="M369.25,212.24c0-32.96-19.22-47.45-47.93-47.45h-24c-15.36,0-22.33-5.39-24.06-27.74h-24c-1.73,22.35-8.7,27.74-24.06,27.74h-24c-28.71,0-47.93,14.48-47.93,47.45,0,.6,0,1.12-.01,2.82h24c0-1.51.02-2.23.02-2.82,0-11.58,8.85-20.21,24.01-20.21h23.91c20.38,0,31.3-8.61,36.06-25.67,4.76,17.07,15.68,25.67,36.06,25.67h23.91c15.15,0,24.01,8.63,24.01,20.21,0,.59.02,1.3.02,2.82h24c0-1.7-.01-2.22-.01-2.82Z" style="fill: #f64419;"/>
  </g>
  <g>
    <path d="M646.92,331.55c-3.47,0-7.17-.4-11.1-1.2-3.93-.8-7.63-2.23-11.1-4.3-3.47-2.07-6.3-5.07-8.5-9-2.2-3.93-3.3-8.97-3.3-15.1,0-7.33,1.6-13.4,4.8-18.2,3.2-4.8,7.77-8.57,13.7-11.3,5.93-2.73,13.03-4.63,21.3-5.7,8.27-1.07,17.4-1.6,27.4-1.6v-7.8c0-3.07-.5-5.73-1.5-8-1-2.27-2.73-4.07-5.2-5.4-2.47-1.33-5.9-2-10.3-2s-7.97.54-10.7,1.6c-2.73,1.07-4.67,2.43-5.8,4.1-1.13,1.67-1.7,3.5-1.7,5.5v2.4h-27c-.13-.67-.2-1.3-.2-1.9v-2.3c0-6.13,1.87-11.43,5.6-15.9,3.73-4.46,9-7.9,15.8-10.3,6.8-2.4,14.73-3.6,23.8-3.6,9.73,0,17.9,1.27,24.5,3.8,6.6,2.53,11.67,6.27,15.2,11.2,3.53,4.93,5.3,11.13,5.3,18.6v47.8c0,2.4.7,4.17,2.1,5.3,1.4,1.13,2.96,1.7,4.7,1.7h6.6v18.2c-1.33.67-3.4,1.37-6.2,2.1-2.8.73-6.2,1.1-10.2,1.1s-7.3-.57-10.3-1.7c-3-1.13-5.5-2.73-7.5-4.8-2-2.07-3.4-4.57-4.2-7.5h-1.4c-2.27,2.8-5.04,5.27-8.3,7.4-3.27,2.13-7.07,3.8-11.4,5-4.33,1.2-9.3,1.8-14.9,1.8ZM656.32,310.55c3.73,0,7.07-.57,10-1.7,2.93-1.13,5.4-2.67,7.4-4.6,2-1.93,3.57-4.3,4.7-7.1,1.13-2.8,1.7-5.8,1.7-9v-5.8c-7.47,0-14.13.5-20,1.5-5.87,1-10.5,2.7-13.9,5.1-3.4,2.4-5.1,5.73-5.1,10,0,2.4.6,4.47,1.8,6.2,1.2,1.73,2.93,3.07,5.2,4,2.27.93,5,1.4,8.2,1.4Z" style="fill: #1b2e46;"/>
    <path d="M762.51,331.55c-6.67,0-12.07-1.2-16.2-3.6-4.13-2.4-7.13-5.63-9-9.7-1.87-4.07-2.8-8.57-2.8-13.5v-59.4h-13v-21.4h14l5.2-30h21.6v30h19.2v21.4h-19.2v54.8c0,3.2.73,5.63,2.2,7.3,1.46,1.67,3.87,2.5,7.2,2.5h9.8v18.4c-1.6.53-3.47,1.03-5.6,1.5-2.13.47-4.4.87-6.8,1.2-2.4.33-4.6.5-6.6.5Z" style="fill: #1b2e46;"/>
    <path d="M840.71,331.55c-11.2,0-20.6-1.97-28.2-5.9-7.6-3.93-13.37-10-17.3-18.2-3.93-8.2-5.9-18.5-5.9-30.9s1.97-23.03,5.9-31.1c3.93-8.07,9.73-14.1,17.4-18.1,7.67-4,17.03-6,28.1-6,7.2,0,13.7.87,19.5,2.6,5.8,1.73,10.83,4.4,15.1,8,4.27,3.6,7.5,8.04,9.7,13.3,2.2,5.27,3.3,11.5,3.3,18.7h-27.8c0-4.8-.73-8.73-2.2-11.8-1.47-3.07-3.7-5.4-6.7-7-3-1.6-6.77-2.4-11.3-2.4-5.33,0-9.67,1.2-13,3.6-3.33,2.4-5.8,5.93-7.4,10.6-1.6,4.67-2.4,10.47-2.4,17.4v4.6c0,6.8.83,12.54,2.5,17.2,1.67,4.67,4.23,8.17,7.7,10.5,3.47,2.33,8,3.5,13.6,3.5,4.53,0,8.3-.8,11.3-2.4,3-1.6,5.3-4,6.9-7.2,1.6-3.2,2.4-7.07,2.4-11.6h26.4c0,6.8-1.1,12.87-3.3,18.2-2.2,5.33-5.4,9.8-9.6,13.4-4.2,3.6-9.23,6.33-15.1,8.2-5.87,1.87-12.4,2.8-19.6,2.8Z" style="fill: #1b2e46;"/>
    <path d="M901.11,329.15v-144.6h27.8v51h1.4c2.27-2.8,4.97-5.23,8.1-7.3,3.13-2.07,6.67-3.7,10.6-4.9,3.93-1.2,8.23-1.8,12.9-1.8,6.93,0,13,1.27,18.2,3.8,5.2,2.53,9.23,6.53,12.1,12,2.87,5.47,4.3,12.6,4.3,21.4v70.4h-27.8v-66c0-3.33-.4-6.17-1.2-8.5-.8-2.33-1.97-4.27-3.5-5.8-1.53-1.53-3.43-2.63-5.7-3.3-2.27-.67-4.8-1-7.6-1-4.13,0-7.87,1-11.2,3-3.33,2-5.93,4.73-7.8,8.2-1.87,3.47-2.8,7.47-2.8,12v61.4h-27.8Z" style="fill: #1b2e46;"/>
    <path d="M1072.31,331.55c-6.8,0-13.03-1.37-18.7-4.1-5.67-2.73-10.23-6.9-13.7-12.5h-1.4l-2.2,14.2h-22.8v-144.6h27.8v51h1.2c2.13-3.07,4.73-5.67,7.8-7.8,3.07-2.13,6.53-3.7,10.4-4.7,3.87-1,8.07-1.5,12.6-1.5,8.27,0,15.5,1.93,21.7,5.8,6.2,3.87,11.03,9.83,14.5,17.9,3.47,8.07,5.2,18.43,5.2,31.1s-1.7,23.07-5.1,31.2c-3.4,8.13-8.27,14.17-14.6,18.1-6.33,3.93-13.9,5.9-22.7,5.9ZM1063.71,308.75c5.6,0,10.03-1.1,13.3-3.3,3.27-2.2,5.63-5.5,7.1-9.9,1.46-4.4,2.2-9.93,2.2-16.6v-4.6c0-6.67-.73-12.23-2.2-16.7-1.47-4.47-3.83-7.8-7.1-10-3.27-2.2-7.7-3.3-13.3-3.3-4,0-7.4.7-10.2,2.1-2.8,1.4-5.1,3.4-6.9,6-1.8,2.6-3.17,5.83-4.1,9.7-.93,3.87-1.4,8.13-1.4,12.8v3.6c0,6.27.8,11.67,2.4,16.2,1.6,4.53,4.07,8,7.4,10.4,3.33,2.4,7.6,3.6,12.8,3.6Z" style="fill: #1b2e46;"/>
    <path d="M1177.51,331.55c-11.47,0-21.2-1.97-29.2-5.9-8-3.93-14.07-10-18.2-18.2-4.13-8.2-6.2-18.5-6.2-30.9s2.07-23.03,6.2-31.1c4.13-8.07,10.2-14.07,18.2-18,8-3.93,17.73-5.9,29.2-5.9s21.57,1.97,29.5,5.9c7.93,3.93,13.97,9.93,18.1,18,4.13,8.07,6.2,18.43,6.2,31.1s-2.07,22.7-6.2,30.9c-4.13,8.2-10.17,14.27-18.1,18.2-7.93,3.93-17.77,5.9-29.5,5.9ZM1177.51,309.95c6.13,0,11.03-1.13,14.7-3.4,3.67-2.27,6.37-5.73,8.1-10.4,1.73-4.67,2.6-10.4,2.6-17.2v-4.8c0-6.8-.87-12.53-2.6-17.2-1.73-4.67-4.43-8.17-8.1-10.5-3.67-2.33-8.57-3.5-14.7-3.5s-10.83,1.17-14.5,3.5c-3.67,2.33-6.37,5.83-8.1,10.5-1.73,4.67-2.6,10.4-2.6,17.2v4.8c0,6.8.87,12.54,2.6,17.2,1.73,4.67,4.43,8.13,8.1,10.4,3.67,2.27,8.5,3.4,14.5,3.4Z" style="fill: #1b2e46;"/>
    <path d="M1226.71,329.15l38.2-54.6-35.4-50.6h33.4l20,31.6h1l20.2-31.6h31.4l-35.6,50.4,37.6,54.8h-32.8l-22.8-35.8h-1l-22.8,35.8h-31.4Z" style="fill: #1b2e46;"/>
    <path d="M561.52,192.55c-4.81-.47-9.88-.61-14.35,0-9.23,1.26-19,8.38-24.59,14.17-5.23-5.69-15.43-12.99-24.71-14.26-4.47-.61-9.54-.47-14.35,0-22.13,2.16-37.62,16.84-37.62,37.62v98.98h28v-98.98c0-5.31,5.33-8.6,9.62-9.62,4.21-1,11.51-1.06,15.35,0,3.54.98,9.62,4.32,9.62,9.62v98.98h.06v.09h28v-98.98c0-5.31,6.08-8.64,9.62-9.62,3.84-1.06,11.15-1,15.35,0,4.29,1.02,9.62,4.32,9.62,9.62v98.98h28v-98.98c0-20.78-15.5-35.46-37.62-37.62Z" style="fill: #1b2e46;"/>
  </g>
</svg>