<?xml version="1.0" encoding="UTF-8"?>
<svg id="Layer_2" data-name="Layer 2" xmlns="http://www.w3.org/2000/svg" viewBox="0 0 216 216">
  <g id="Layer_1-2" data-name="Layer 1">
    <g>
      <path d="M192,78v114h-39v-71.47c2.58-3.65,4-8.48,4-13.53,0-10.45-6.03-20-16-20s-16,9.55-16,20c0,5.05,1.42,9.88,4,13.53v71.47h-42v-71.47c2.58-3.65,4-8.48,4-13.53,0-10.45-6.03-20-16-20s-16,9.55-16,20c0,5.05,1.42,9.88,4,13.53v71.47H24v-114H0v138h216V78h-24Z" style="fill: #e4a242;"/>
      <path d="M215.99,75.18c0-32.96-19.22-47.45-47.93-47.45h-24c-15.36,0-22.33-5.39-24.06-27.74h-24c-1.73,22.35-8.7,27.74-24.06,27.74h-24C19.23,27.74.01,42.22.01,75.18c0,.6,0,1.12-.01,2.82h24c0-1.51.02-2.23.02-2.82,0-11.58,8.85-20.21,24.01-20.21h23.91c20.38,0,31.3-8.61,36.06-25.67,4.76,17.07,15.68,25.67,36.06,25.67h23.91c15.15,0,24.01,8.63,24.01,20.21,0,.59.02,1.3.02,2.82h24c0-1.7-.01-2.22-.01-2.82Z" style="fill: #f64419;"/>
    </g>
  </g>
</svg>